<svg width="177" height="337" viewBox="0 0 177 337" fill="none" xmlns="http://www.w3.org/2000/svg">
<path d="M176.962 90.3375C176.1 85.756 173.513 82.5319 169.202 80.5805L-37.6361 0.827228C-40.4813 -0.275743 -43.6714 -0.275743 -46.5166 0.827228L-253.269 80.5805C-264.046 84.9075 -263.097 99.1613 -253.269 102.894L-183.001 129.96V274.958C-183.001 279.879 -179.897 284.291 -175.241 286.072L-46.4304 335.791C-43.499 337.403 -40.4813 337.403 -37.5499 335.791L91.2605 286.072C95.9163 284.291 99.0202 279.879 99.0202 274.958V130.044L152.648 109.343V249.844C152.648 256.462 158.08 261.807 164.805 261.807C171.53 261.807 176.962 256.462 176.962 249.844C176.962 249.759 177.048 90.7618 176.962 90.3375ZM74.6203 266.813L-42.0333 311.78L-158.687 266.813V139.377L-46.4304 182.733C-43.7577 183.92 -40.74 183.751 -37.5499 182.733L74.6203 139.462V266.813ZM-42.0333 158.722L-215.505 91.7799L-42.0333 24.838L131.438 91.7799L-42.0333 158.722Z" fill="#fff"/>
</svg>
