<svg id="Layer_1" enable-background="new 0 0 77 72.8" height="512" viewBox="0 0 77 72.8" width="512" xmlns="http://www.w3.org/2000/svg"><g><circle cx="11" cy="31.7" fill="#e8ebec" r="11"/><circle cx="40.1" cy="14.8" fill="#e8ebec" r="14"/><circle cx="56" cy="51.8" fill="#e8ebec" r="21"/><path d="m46 64.8h-36c-1.7 0-3-1.3-3-3v-48c0-1.7 1.3-3 3-3h36c1.7 0 3 1.3 3 3v48c0 1.6-1.3 3-3 3z" fill="#fff"/><path d="m46 64.7h-31c-1.1 0-2-.9-2-2v-44h34c1.1 0 2 .9 2 2v41c0 1.7-1.3 3-3 3z" fill="#bdc3d8"/><path d="m46 65.5h-36c-2.1 0-3.8-1.7-3.8-3.8v-48c0-2.1 1.7-3.8 3.8-3.8h36c2.1 0 3.8 1.7 3.8 3.8v48c-.1 2.1-1.7 3.8-3.8 3.8zm-36-54c-1.2 0-2.3 1-2.3 2.3v48c0 1.2 1 2.3 2.3 2.3h36c1.2 0 2.3-1 2.3-2.3v-48c0-1.2-1-2.3-2.3-2.3z" fill="#21365f"/><path d="m43.5 60.2h-31c-.6 0-1-.4-1-1v-43c0-.6.4-1 1-1h31c.6 0 1 .4 1 1v43c0 .6-.4 1-1 1z" fill="#fff"/><path d="m43.5 60.3h-26v-6c0-14.9 12.1-27 27-27v32c0 .5-.4 1-1 1z" fill="#bdc3d8"/><path d="m43.5 61h-31c-1 0-1.8-.8-1.8-1.8v-43c0-1 .8-1.7 1.8-1.7h31c1 0 1.8.8 1.8 1.7v43c-.1 1-.8 1.8-1.8 1.8zm-31-45c-.1 0-.3.1-.3.2v43c0 .1.1.3.3.3h31c.1 0 .3-.1.3-.3v-43c0-.1-.1-.2-.3-.2z" fill="#21365f"/><path d="m30.5 55c-4.5 0-8.3-3.7-8.3-8.3 0-.4.3-.8.8-.8.4 0 .8.3.8.8 0 3.7 3 6.8 6.8 6.8 3.7 0 6.8-3 6.8-6.8v-33.4c-.1-7.4 5.8-13.3 13.1-13.3s13.3 5.9 13.3 13.3v27.5c0 .4-.3.8-.8.8-.4 0-.8-.3-.8-.8v-27.5c0-6.5-5.3-11.8-11.8-11.8s-11.6 5.3-11.6 11.8v33.5c0 4.5-3.8 8.2-8.3 8.2z" fill="#21365f"/><path d="m23 .8s-5.2 5-6.6 10.1c-.8 2.9-.6 6.3 2.7 8.4h3.6c-.7-2.5-1.9-9.5.3-18.5z" fill="#fff"/><path d="m27.6 6.5c-2-3.3-4.6-5.8-4.6-5.8-2.1 9-.9 16-.3 18.6h4.2c4.9-3.2 3.1-8.8.7-12.8z" fill="#fff"/><path d="m26 4.8c-1.4 6-1.4 11.1-1 14.5h1.9c7.3-5.6-.9-14.5-.9-14.5z" fill="#bdc3d8"/><path d="m27.5 23.9h-9.1c-.7 6.7-1.2 18.7 4.6 22.9 5.7-4.2 5.3-16.3 4.5-22.9z" fill="#fff"/><path d="m27.8 26.9h-4c-.8 0-1.4.6-1.5 1.4-.5 5.2-.6 12.6 1.7 17.6 4-4.1 4.2-12.7 3.8-19z" fill="#bdc3d8"/><path d="m26.9 19.3c-1.9 0-4.2 0-7.8 0 0 0-.4 1.8-.7 4.6h9.1c-.3-2.8-.6-4.6-.6-4.6z" fill="#fff"/><path d="m21.3 20.1c-1 0-1.8 0-2.3 0-.1 0-.3 0-.4-.1-3-1.9-4.1-5.2-3-9.2 1.4-5.3 6.6-10.3 6.8-10.5.3-.3.6-.4.9-.2s.4.5.4.8c-2.1 8.9-.9 15.7-.3 18.2.1.2 0 .5-.1.6-.1.2-.4.3-.6.3-.5.1-1 .1-1.4.1zm-2-1.6h2.4c-.6-2.8-1.3-8.3-.1-15.3-1.6 1.9-3.8 4.8-4.6 7.8-.5 2.4-.6 5.5 2.3 7.5z" fill="#21365f"/><path d="m22.7 20.1c-.3 0-.6-.2-.7-.6-.6-2.6-1.9-9.7.3-18.9.1-.3.3-.5.5-.5.2-.1.5-.1.7.1.1.1 2.7 2.6 4.7 5.9 3.7 6 3.3 11-.9 13.8-.2.1-.3.1-.4.1-.6 0-1.4 0-2.2 0zm.7-17.8c-1.6 7.6-.7 13.5-.1 16.3h1.4 2c4.6-3.1 2.2-8.6.3-11.6-1.3-2-2.7-3.7-3.6-4.7z" fill="#21365f"/><path d="m23 47.5c-.2 0-.3 0-.4-.1-6-4.4-5.6-16.7-4.9-23.6 0-.4.4-.7.7-.7h9.1c.4 0 .7.3.7.7.8 6.9 1.2 19.2-4.9 23.6 0 .1-.2.1-.3.1zm-3.9-22.9c-.7 6.5-.9 17.1 3.9 21.2 4.8-4.1 4.6-14.7 3.9-21.2z" fill="#21365f"/><path d="m27.5 24.6h-9.1c-.2 0-.4-.1-.6-.3-.1-.2-.2-.4-.2-.6.3-2.7.7-4.6.7-4.6.1-.4.4-.6.7-.6h7.8c.4 0 .7.3.7.6 0 .1.4 1.9.7 4.6 0 .2 0 .4-.2.6-.1.2-.3.3-.5.3zm-8.3-1.5h7.5c-.2-1.4-.3-2.4-.4-3.1h-6.6c-.1.7-.3 1.8-.5 3.1z" fill="#21365f"/><path d="m71 48.1v-.3c0-3.9-3.1-7-7-7h-2c-3.9 0-7 3.1-7 7v.3c4.7 3.7 11.3 3.7 16 0z" fill="#fff"/><path d="m71 48.1v-.3c0-.9-.2-1.7-.5-2.5-.8-.3-1.6-.5-2.5-.5h-2c-3.4 0-6.2 2.4-6.8 5.5 3.9 1.2 8.4.5 11.8-2.2z" fill="#bdc3d8"/><path d="m55 48.1v9.7c0 3.9 3.1 7 7 7h2c3.9 0 7-3.1 7-7v-9.7c-4.7 3.7-11.3 3.7-16 0z" fill="#fff"/><path d="m61 50.1v.6c.4.1.7.1 1.1.1-.4-.2-.8-.5-1.1-.7z" fill="#bdc3d8"/><path d="m62.1 50.8c-.4 0-.7-.1-1.1-.1v9.1c0 2 .8 3.7 2.1 5h.9c3.9 0 7-3.1 7-7v-5.1-4.6c-2.6 2-5.8 2.9-8.9 2.7z" fill="#bdc3d8"/><g fill="#21365f"><path d="m63 51.6c-3 0-6-1-8.5-2.9-.2-.1-.3-.4-.3-.6v-.3c0-4.3 3.5-7.8 7.8-7.8h2c4.3 0 7.8 3.5 7.8 7.8v.3c0 .2-.1.4-.3.6-2.5 1.9-5.5 2.9-8.5 2.9zm-7.2-3.9c4.3 3.2 10.2 3.2 14.5 0 0-3.4-2.8-6.2-6.3-6.2h-2c-3.4 0-6.2 2.8-6.2 6.2z"/><path d="m64 65.5h-2c-4.3 0-7.8-3.5-7.8-7.8v-9.7c0-.3.2-.6.4-.7.3-.1.6-.1.8.1 4.4 3.5 10.7 3.5 15.1 0 .2-.2.5-.2.8-.1s.4.4.4.7v9.7c.1 4.3-3.4 7.8-7.7 7.8zm-8.2-16v8.2c0 3.4 2.8 6.3 6.3 6.3h2c3.4 0 6.3-2.8 6.3-6.3v-8.2c-4.5 2.8-10.3 2.8-14.6 0z"/><path d="m63 48.4c-.4 0-.8-.3-.8-.8v-4c0-.4.3-.8.8-.8.4 0 .8.3.8.8v4c0 .5-.4.8-.8.8z"/><path d="m59 36.2h-4c-.4 0-.8-.3-.8-.8 0-.4.3-.8.8-.8h4c.4 0 .8.3.8.8-.1.4-.4.8-.8.8z"/><path d="m57 38.2c-.4 0-.8-.3-.8-.8v-4c0-.4.3-.8.8-.8.4 0 .8.3.8.8v4c-.1.4-.4.8-.8.8z"/><circle cx="57" cy="29.4" r=".8"/><circle cx="57" cy="26.4" r=".8"/><circle cx="57" cy="22.4" r=".8"/><circle cx="57" cy="16.4" r=".8"/><path d="m70 8.4h-4c-.4 0-.8-.3-.8-.8 0-.4.3-.8.8-.8h4c.4 0 .8.3.8.8s-.4.8-.8.8z"/><path d="m68 10.4c-.4 0-.8-.3-.8-.8v-4c0-.4.3-.8.8-.8.4 0 .8.3.8.8v4c0 .5-.4.8-.8.8z"/><circle cx="68" cy="13.7" r=".8"/><circle cx="68" cy="16.7" r=".8"/><circle cx="68" cy="21.7" r=".8"/><circle cx="68" cy="28.7" r=".8"/><path d="m14 3.5h-4c-.4 0-.8-.3-.8-.8.1-.4.4-.7.8-.7h4c.4 0 .8.3.8.8 0 .4-.4.7-.8.7z"/><path d="m12 5.5c-.4 0-.8-.3-.8-.8v-4c.1-.4.4-.7.8-.7s.8.3.8.8v4c0 .4-.4.7-.8.7z"/></g></g></svg>